<?xml version="1.0" encoding="utf-8"?>
<!-- Generator: Adobe Illustrator 19.2.1, SVG Export Plug-In . SVG Version: 6.00 Build 0)  -->
<svg version="1.1" id="Layer_1" xmlns="http://www.w3.org/2000/svg" xmlns:xlink="http://www.w3.org/1999/xlink" x="0px" y="0px"
	 viewBox="0 0 306 88" style="enable-background:new 0 0 306 88;" xml:space="preserve">
<style type="text/css">
	.st0{fill:#010101;}
</style>
<g>
	<g>
		<path class="st0" d="M95.1,38.9H84.3v-9.6H117v9.6h-10.9v38.2H95.1V38.9z"/>
		<path class="st0" d="M127.6,26.7c3.8,0,6.8,2.9,6.8,6.6c0,3.6-2.9,6.6-6.8,6.6c-3.8,0-6.7-3-6.7-6.6
			C120.9,29.6,123.9,26.7,127.6,26.7z M122.4,44.2h10.4v32.9h-10.4V44.2z"/>
		<path class="st0" d="M180.1,77.2V59.4c0-4.4-1.5-7.1-5.1-7.1c-3.1,0-5.5,2-5.5,8.3v16.5h-10.1V59.3c0-4.4-1.4-7-4.9-7
			c-3.2,0-5.7,2-5.7,8.5v16.3h-10.1V44.2h10.1V49c1.4-3.1,4.9-5.6,9.5-5.6c5.7,0,8.6,2.6,10,5.9c1.7-3.4,5.5-5.9,10.3-5.9
			c9.6,0,11.5,6.5,11.5,13.5v20.3H180.1z"/>
		<path class="st0" d="M206.4,77.2h-10.4V29.4h10.4V49c1.6-3,5.8-5.5,10.1-5.5c9.5,0,16,7.4,16,17.3c0,9.8-6.6,17.3-16,17.3
			c-4.3,0-8.5-2.5-10.1-5.5V77.2z M222.1,60.7c0-4.5-3.1-8.4-7.8-8.4c-4.8,0-7.9,3.9-7.9,8.4c0,4.6,3.1,8.4,7.9,8.4
			C218.9,69.1,222.1,65.3,222.1,60.7z"/>
		<path class="st0" d="M245,63.2c0.2,4,1.8,7.3,7.3,7.3c3.6,0,5.4-1.6,6.1-3.8h10.2c-1,6.2-6.8,11.3-16.2,11.3
			c-11.5,0-17.8-7.2-17.8-17.3c0-9.6,6.1-17.3,17.5-17.3c10.3,0,16.9,7,16.9,15c0,1.4,0,2.9-0.3,4.8H245z M245,57.2h13.8
			c0-4.2-2.8-6.9-6.8-6.9C247.9,50.3,245,52.8,245,57.2z"/>
		<path class="st0" d="M295.7,53.7c-1.4-0.3-2.3-0.5-3.7-0.5c-5.7,0-9.5,3-9.5,11.1v12.8h-10.4V44.2h10.4v5.3
			c1.5-3.1,5.5-5.9,10-5.9c1.3,0,2.2,0.1,3.1,0.5V53.7z"/>
	</g>
	<polygon class="st0" points="71.7,76.7 70.2,74.8 41.4,74.8 41.4,72.5 68.4,72.5 66.9,70.6 41.4,70.6 41.4,68.2 65.1,68.2 
		63.6,66.3 41.4,66.3 41.4,63.9 61.8,63.9 60.3,62.1 41.4,62.1 41.4,59.7 58.5,59.7 57,57.8 41.4,57.8 41.4,55.4 55.1,55.4 
		53.7,53.5 41.4,53.5 41.4,51.2 62.2,51.2 60.8,49.3 41.4,49.3 41.4,46.9 59.1,46.9 57.8,45 41.4,45 41.4,42.6 56.1,42.6 54.7,40.7 
		41.4,40.7 41.4,38.4 53,38.4 51.7,36.5 41.4,36.5 41.4,34.1 49.9,34.1 48.6,32.2 41.4,32.2 41.4,29.8 46.9,29.8 54.8,29.8 
		53.5,27.9 41.4,27.9 41.4,25.6 51.8,25.6 50.5,23.7 41.4,23.7 41.4,21.3 48.8,21.3 47.4,19.4 41.4,19.4 41.4,17 45.8,17 44.4,15.1 
		41.4,15.1 41.4,12.8 42.7,12.8 41.4,10.9 41.4,0 22.1,26.9 33,26.9 11,57.5 22.3,57.5 0,88 41.4,88 41.4,76.7 	"/>
</g>
</svg>
