<svg id="Layer_1" data-name="Layer 1" xmlns="http://www.w3.org/2000/svg" viewBox="0 0 712.8 144"><title>Artboard 1</title><path d="M90,66.77c0,17.22-12.52,35-37.42,35-26.18,0-41-13.66-41-34.72V14.69L1.78,7V6.15H39.06V7L28.53,14.69v51.8C28.53,82.57,38.21,92,56.14,92c16.36,0,26-11.24,26-25.61V14.69L71.65,7V6.15H99.54V7L90,14.69Z"/><path d="M133.69,136.21v.85H98.12v-.85l8.11-6.69V51.83l-7.83-5v-1a240.56,240.56,0,0,1,22.91-7.54v10.1c4.84-5,11.53-9.39,19.07-9.39,14.66,0,23.91,11.53,23.91,27.89,0,18.07-11.81,34.44-33.44,34.44-3.27,0-6-.14-9.53-.43v28.6ZM121.31,52.54V92.81a16.54,16.54,0,0,0,8.82,2.28c11,0,18.36-10.39,18.36-24.62S141.94,48.7,132.41,48.7C126.72,48.7,123.16,50.83,121.31,52.54Z"/><path d="M206,40.87V54.39h-.85c-4.84-5.55-9.11-9.53-14.51-9.53-3.42,0-6.55,2.13-6.55,6.12,0,4.84,3.84,7.11,10.24,11.24,8,5.12,16.08,9.82,16.08,20.63s-9,18.92-23.05,18.92a42.88,42.88,0,0,1-16.79-3.41,136,136,0,0,1-1-20.35h1c2.7,6.83,8.25,17.22,17.5,17.22,5,0,8.54-3.42,8.54-8.11,0-5.55-3.7-8.11-11-12.52-8.11-5.12-14.09-10.24-14.09-19.35,0-9.82,8.4-16.22,20.92-16.22A49.66,49.66,0,0,1,206,40.87Z"/><path d="M235.43,49V82c0,5.27,3.13,10,12.24,10a29.68,29.68,0,0,0,12-2.42l.57,1c-3,3.84-10.53,11.1-21.34,11.1-13.38,0-18.5-8.4-18.5-15.37V49h-8.11V48l23.19-18.21v11.1h28.32L258.48,49Z"/><path d="M286.8,47.13a12.07,12.07,0,0,0-8.25,3.42v10.1l-13.8-4.55v-.71c4.41-5.27,13.66-16.65,28.46-16.65,12.81,0,17.93,8.25,17.93,14.51,0,8.11-.43,31.87-.43,35.71a34.38,34.38,0,0,0,10.1,4.56v.85l-10.39,8.54c-5-1.71-10.39-5-13.38-8.54-4.41,3.84-11,7.68-15.65,7.68-11,0-17.93-7.11-17.93-15.51,0-5.55,3-9.53,5.41-10.24l27.6-7.68v-12C296.48,51.26,293.21,47.13,286.8,47.13Zm9.68,27c-5.41,1.71-16.79,5.41-17.64,5.83s-1.28,2.13-1.28,4c0,4.84,3.56,9,10.1,9a15.63,15.63,0,0,0,8.68-2.56C296.34,86.55,296.48,80.72,296.48,74.17Z"/><path d="M342.44,49V82c0,5.27,3.13,10,12.24,10a29.68,29.68,0,0,0,12-2.42l.57,1c-3,3.84-10.53,11.1-21.34,11.1-13.38,0-18.5-8.4-18.5-15.37V49h-8.11V48l23.19-18.21v11.1h28.32L365.49,49Z"/><path d="M407.33,91.24a42.39,42.39,0,0,0,15.51-2.85l.57,1c-3.27,4.13-12.95,12.38-24.9,12.38-16.37,0-28.6-11.81-28.6-30.45,0-18.21,14.09-32.3,28.6-32.3S419,51,422.13,60.65v.28H384.56c-.14,1.71-.28,3.56-.28,5.41C384.28,82.28,393.53,91.24,407.33,91.24ZM385.84,55.67h21.34c-.71-8.39-6.12-10.81-9.39-10.81C393.24,44.86,388.26,48.41,385.84,55.67Z"/><path d="M447.88,49.55C453.29,44.15,460.55,39,468.23,39c8.54,0,14.23,5.12,16.36,11.1C490,44.86,497.69,39,506.08,39c10.25,0,17.08,7.54,17.08,14.51V92.81l8.11,6.69v.85h-31V99.5l8-6.69V59.09c0-5.55-3.13-10.24-10.53-10.24-5.55,0-9.68,3.27-12.24,5.69V92.81l8.11,6.69v.85H462.68V99.5l7.83-6.69V59.09c0-5.55-3.27-10.24-10.67-10.24-5.27,0-9.39,3.13-12,5.55V93l8,6.55v.85H424.69V99.5l8.11-6.69v-41l-7.83-5v-1c1.42-.43,12.66-4.55,22.91-7.26Z"/><path d="M568.27,91.24a42.39,42.39,0,0,0,15.51-2.85l.57,1c-3.27,4.13-12.95,12.38-24.9,12.38-16.37,0-28.6-11.81-28.6-30.45,0-18.21,14.09-32.3,28.6-32.3s20.49,12,23.62,21.63v.28H545.5c-.14,1.71-.28,3.56-.28,5.41C545.22,82.28,554.47,91.24,568.27,91.24ZM546.78,55.67h21.34c-.71-8.39-6.12-10.81-9.39-10.81C554.18,44.86,549.2,48.41,546.78,55.67Z"/><path d="M585.63,100.35V99.5L593.74,93V51.83l-7.83-5v-1c1.42-.43,12.66-4.55,22.91-7.26V49.41C614.38,43.86,622.34,39,630.17,39c10.81,0,18.5,8,18.5,14.8V93l8.25,6.55v.85h-31.3V99.5l8-6.55V58.52c0-5-3.7-9.82-11.81-9.82a19,19,0,0,0-12.95,5.55V93l8.11,6.55v.85Z"/><path d="M680.25,49V82c0,5.27,3.13,10,12.24,10a29.68,29.68,0,0,0,12-2.42l.57,1c-3,3.84-10.53,11.1-21.34,11.1-13.38,0-18.5-8.4-18.5-15.37V49h-8.11V48l23.19-18.21v11.1h28.32L703.3,49Z"/></svg>